<?xml version="1.0" encoding="UTF-8" standalone="no"?>
<!-- Generator: Adobe Illustrator 19.0.0, SVG Export Plug-In . SVG Version: 6.00 Build 0)  -->

<svg
   version="1.1"
   id="Capa_1"
   x="0px"
   y="0px"
   viewBox="0 0 489.425 365.425"
   xml:space="preserve"
   sodipodi:docname="delete.svg"
   width="489.42499"
   height="365.42499"
   inkscape:version="1.3 (0e150ed6c4, 2023-07-21)"
   xmlns:inkscape="http://www.inkscape.org/namespaces/inkscape"
   xmlns:sodipodi="http://sodipodi.sourceforge.net/DTD/sodipodi-0.dtd"
   xmlns="http://www.w3.org/2000/svg"
   xmlns:svg="http://www.w3.org/2000/svg"><defs
   id="defs18" /><sodipodi:namedview
   id="namedview18"
   pagecolor="#ffffff"
   bordercolor="#000000"
   borderopacity="0.25"
   inkscape:showpageshadow="2"
   inkscape:pageopacity="0.0"
   inkscape:pagecheckerboard="0"
   inkscape:deskcolor="#d1d1d1"
   inkscape:zoom="1.6774787"
   inkscape:cx="213.11746"
   inkscape:cy="116.54395"
   inkscape:window-width="1920"
   inkscape:window-height="1017"
   inkscape:window-x="-8"
   inkscape:window-y="-8"
   inkscape:window-maximized="1"
   inkscape:current-layer="Capa_1" />&#10;<g
   id="g3"
   style="fill:#ffffff;fill-opacity:1;stroke:#ffffff;stroke-opacity:1"
   transform="translate(0.59613275,-61.401673)">&#10;	<g
   id="g2"
   style="fill:#ffffff;fill-opacity:1;stroke:#ffffff;stroke-opacity:1">&#10;		<path
   d="m 122.825,394.663 c 17.8,19.4 43.2,30.6 69.5,30.6 h 216.9 c 44.2,0 80.2,-36 80.2,-80.2 v -200.7 c 0,-44.2 -36,-80.2 -80.2,-80.2 h -216.9 c -26.4,0 -51.7,11.1 -69.5,30.6 l -111.8,121.7 c -14.7,16.1 -14.7,40.3 0,56.4 z m -93.7,-161.6 111.8,-121.8 c 13.2,-14.4 32,-22.6 51.5,-22.6 h 216.9 c 30.7,0 55.7,25 55.7,55.7 v 200.6 c 0,30.7 -25,55.7 -55.7,55.7 h -217 c -19.5,0 -38.3,-8.2 -51.5,-22.6 l -111.7,-121.8 c -6.1,-6.6 -6.1,-16.6 0,-23.2 z"
   id="path1"
   style="fill:#ffffff;fill-opacity:1;stroke:#ffffff;stroke-opacity:1" />&#10;		<path
   d="m 225.425,309.763 c 2.4,2.4 5.5,3.6 8.7,3.6 3.2,0 6.3,-1.2 8.7,-3.6 l 47.8,-47.8 47.8,47.8 c 2.4,2.4 5.5,3.6 8.7,3.6 3.2,0 6.3,-1.2 8.7,-3.6 4.8,-4.8 4.8,-12.5 0,-17.3 l -47.9,-47.8 47.8,-47.8 c 4.8,-4.8 4.8,-12.5 0,-17.3 -4.8,-4.8 -12.5,-4.8 -17.3,0 l -47.8,47.8 -47.8,-47.8 c -4.8,-4.8 -12.5,-4.8 -17.3,0 -4.8,4.8 -4.8,12.5 0,17.3 l 47.8,47.8 -47.8,47.8 c -4.8,4.8 -4.8,12.499 -0.1,17.3 z"
   id="path2"
   style="fill:#ffffff;fill-opacity:1;stroke:#ffffff;stroke-opacity:1" />&#10;	</g>&#10;</g>&#10;<g
   id="g4">&#10;</g>&#10;<g
   id="g5">&#10;</g>&#10;<g
   id="g6">&#10;</g>&#10;<g
   id="g7">&#10;</g>&#10;<g
   id="g8">&#10;</g>&#10;<g
   id="g9">&#10;</g>&#10;<g
   id="g10">&#10;</g>&#10;<g
   id="g11">&#10;</g>&#10;<g
   id="g12">&#10;</g>&#10;<g
   id="g13">&#10;</g>&#10;<g
   id="g14">&#10;</g>&#10;<g
   id="g15">&#10;</g>&#10;<g
   id="g16">&#10;</g>&#10;<g
   id="g17">&#10;</g>&#10;<g
   id="g18">&#10;</g>&#10;</svg>
